# xmcd
#
# Track frame offsets:
#	150
#	19340
#	45022
#	65077
#	86925
#	108522
#	124305
#	149545
#	169895
#	189247
#	206657
#	225941
#
# Disc length: 3320 seconds
#
# Revision: 1
# Processed by: cddbd v1.5PL3 Copyright (c) Steve Scherf et al.
# Submitted via: EasyCDDAExtractor 5.0.7
#
DISCID=a70cf60c
DTITLE=Van Hunt
DYEAR=2004
DGENRE=R and B
TTITLE0=Dust
TTITLE1=Seconds of Pleasure
TTITLE2=Hello, Goodbye
TTITLE3=Down Here in Hell (With You)
TTITLE4=What Can I Say (For Millicent)
TTITLE5=Anything (To Get Your Attention)
TTITLE6=Highlights
TTITLE7=Precious
TTITLE8=Her December
TTITLE9=Hold My Hand
TTITLE10=Who Will Love Me in Winter
TTITLE11=Out of the Sky 
EXTD=
EXTT0=
EXTT1=
EXTT2=
EXTT3=
EXTT4=
EXTT5=
EXTT6=
EXTT7=
EXTT8=
EXTT9=
EXTT10=
EXTT11=
PLAYORDER=
